<svg width="94" height="26" viewBox="0 0 94 26" fill="none" xmlns="http://www.w3.org/2000/svg">
<path d="M10.102 19.986C9.61667 20.3847 9.01867 20.7053 8.308 20.948C7.61467 21.1733 6.91267 21.286 6.202 21.286C4.98867 21.286 3.92267 21.052 3.004 20.584C2.08533 20.0987 1.366 19.4313 0.846 18.582C0.343333 17.7153 0.0920001 16.684 0.0920001 15.488C0.0920001 14.292 0.360667 13.2607 0.898 12.394C1.45267 11.5273 2.172 10.8687 3.056 10.418C3.95733 9.95 4.91067 9.716 5.916 9.716C6.83467 9.716 7.64933 9.846 8.36 10.106C9.07067 10.3487 9.686 10.6867 10.206 11.12L8.75 13.018C8.47267 12.7927 8.10867 12.5847 7.658 12.394C7.22467 12.186 6.73067 12.082 6.176 12.082C5.58667 12.082 5.04933 12.2293 4.564 12.524C4.096 12.8187 3.71467 13.226 3.42 13.746C3.14267 14.2487 3.004 14.8293 3.004 15.488C3.004 16.112 3.15133 16.684 3.446 17.204C3.74067 17.724 4.148 18.14 4.668 18.452C5.188 18.7467 5.786 18.894 6.462 18.894C6.89533 18.894 7.294 18.8333 7.658 18.712C8.03933 18.5733 8.36867 18.3913 8.646 18.166L10.102 19.986ZM13.0879 21V0.719999H15.9479V12.42L15.8959 11.978C16.2773 11.2673 16.8406 10.6867 17.5859 10.236C18.3313 9.768 19.2239 9.534 20.2639 9.534C21.3039 9.534 22.1619 9.83733 22.8379 10.444C23.5139 11.0507 23.8606 11.848 23.8779 12.836V21H20.9659V13.876C20.9486 13.3213 20.7926 12.8793 20.4979 12.55C20.2033 12.2033 19.7353 12.0213 19.0939 12.004C18.5046 12.004 17.9759 12.186 17.5079 12.55C17.0399 12.914 16.6673 13.408 16.3899 14.032C16.1299 14.6387 15.9999 15.332 15.9999 16.112V21H13.0879ZM32.5187 21.286C31.4787 21.286 30.534 21.0693 29.6847 20.636C28.8527 20.2027 28.194 19.5613 27.7087 18.712C27.2233 17.8453 26.9807 16.7793 26.9807 15.514C26.9807 14.266 27.232 13.2 27.7347 12.316C28.2547 11.4147 28.9307 10.7213 29.7627 10.236C30.612 9.75067 31.5307 9.508 32.5187 9.508C33.576 9.508 34.4253 9.716 35.0667 10.132C35.7253 10.548 36.2367 11.042 36.6007 11.614L36.4447 12.03L36.7307 10.002H39.4087V21H36.4967V18.322L36.7827 19.024C36.7133 19.128 36.5747 19.3013 36.3667 19.544C36.1587 19.7693 35.8727 20.0207 35.5087 20.298C35.1447 20.5753 34.7113 20.8093 34.2087 21C33.7233 21.1907 33.16 21.286 32.5187 21.286ZM33.3247 18.894C33.8447 18.894 34.3127 18.7987 34.7287 18.608C35.162 18.4173 35.526 18.1487 35.8207 17.802C36.1327 17.4553 36.358 17.0393 36.4967 16.554V14.162C36.358 13.7113 36.1327 13.3213 35.8207 12.992C35.5087 12.6453 35.1273 12.3767 34.6767 12.186C34.2433 11.9953 33.758 11.9 33.2207 11.9C32.6313 11.9 32.0853 12.0473 31.5827 12.342C31.08 12.6367 30.6727 13.044 30.3607 13.564C30.066 14.084 29.9187 14.682 29.9187 15.358C29.9187 16.0167 30.0747 16.6147 30.3867 17.152C30.6987 17.6893 31.1147 18.114 31.6347 18.426C32.1547 18.738 32.718 18.894 33.3247 18.894ZM44.4697 5.166H47.4077V10.002H50.2677V12.29H47.4077V21H44.4697V12.29H42.5977V10.002H44.4697V5.166ZM57.653 21.208C56.6823 21.208 55.7983 20.9913 55.001 20.558C54.221 20.1073 53.597 19.4833 53.129 18.686C52.6783 17.8887 52.453 16.9613 52.453 15.904C52.453 14.7773 52.6956 13.8153 53.181 13.018C53.6663 12.2033 54.325 11.588 55.157 11.172C55.989 10.7387 56.9336 10.522 57.991 10.522C58.8923 10.522 59.7416 10.7907 60.539 11.328C61.3536 11.8653 61.9343 12.5413 62.281 13.356L62.099 13.72L62.255 10.834H63.347V21H62.125V17.854L62.385 18.322C62.2636 18.6687 62.0556 19.0153 61.761 19.362C61.4663 19.6913 61.1023 20.0033 60.669 20.298C60.253 20.5753 59.785 20.8007 59.265 20.974C58.7623 21.13 58.225 21.208 57.653 21.208ZM57.913 20.168C58.6756 20.168 59.3603 20.012 59.967 19.7C60.591 19.3707 61.0936 18.92 61.475 18.348C61.8563 17.776 62.073 17.1173 62.125 16.372V14.916C61.9863 14.2747 61.709 13.7027 61.293 13.2C60.8943 12.6973 60.4003 12.2987 59.811 12.004C59.2216 11.7093 58.5803 11.562 57.887 11.562C57.1243 11.562 56.4223 11.744 55.781 12.108C55.1396 12.4547 54.6283 12.9487 54.247 13.59C53.8656 14.2313 53.675 14.9853 53.675 15.852C53.675 16.6493 53.8656 17.3773 54.247 18.036C54.6283 18.6773 55.1396 19.1973 55.781 19.596C56.4396 19.9773 57.1503 20.168 57.913 20.168ZM73.5804 21.208C72.6097 21.208 71.6997 20.9567 70.8504 20.454C70.0011 19.934 69.3771 19.2667 68.9784 18.452L69.1864 18.01V25.888H67.9644V10.756H69.0564L69.1864 14.084L68.9524 13.33C69.4031 12.5153 70.0617 11.848 70.9284 11.328C71.7951 10.7907 72.7397 10.522 73.7624 10.522C74.7331 10.522 75.6084 10.756 76.3884 11.224C77.1684 11.692 77.7837 12.3333 78.2344 13.148C78.7024 13.9453 78.9364 14.864 78.9364 15.904C78.9364 16.9267 78.6937 17.8453 78.2084 18.66C77.7404 19.4573 77.0991 20.0813 76.2844 20.532C75.4871 20.9827 74.5857 21.208 73.5804 21.208ZM73.3724 20.194C74.1697 20.194 74.8891 20.0033 75.5304 19.622C76.1891 19.2407 76.7091 18.7293 77.0904 18.088C77.4891 17.4293 77.6884 16.7013 77.6884 15.904C77.6884 15.0893 77.4977 14.3613 77.1164 13.72C76.7351 13.0613 76.2237 12.5413 75.5824 12.16C74.9584 11.7787 74.2477 11.588 73.4504 11.588C72.6877 11.588 71.9944 11.7613 71.3704 12.108C70.7464 12.4547 70.2437 12.9227 69.8624 13.512C69.4811 14.1013 69.2557 14.7687 69.1864 15.514V16.346C69.2384 17.0567 69.4551 17.7067 69.8364 18.296C70.2351 18.8853 70.7377 19.3533 71.3444 19.7C71.9684 20.0293 72.6444 20.194 73.3724 20.194ZM88.18 21.208C87.2093 21.208 86.2993 20.9567 85.45 20.454C84.6007 19.934 83.9767 19.2667 83.578 18.452L83.786 18.01V25.888H82.564V10.756H83.656L83.786 14.084L83.552 13.33C84.0027 12.5153 84.6613 11.848 85.528 11.328C86.3947 10.7907 87.3393 10.522 88.362 10.522C89.3327 10.522 90.208 10.756 90.988 11.224C91.768 11.692 92.3833 12.3333 92.834 13.148C93.302 13.9453 93.536 14.864 93.536 15.904C93.536 16.9267 93.2933 17.8453 92.808 18.66C92.34 19.4573 91.6987 20.0813 90.884 20.532C90.0867 20.9827 89.1853 21.208 88.18 21.208ZM87.972 20.194C88.7693 20.194 89.4887 20.0033 90.13 19.622C90.7887 19.2407 91.3087 18.7293 91.69 18.088C92.0887 17.4293 92.288 16.7013 92.288 15.904C92.288 15.0893 92.0973 14.3613 91.716 13.72C91.3347 13.0613 90.8233 12.5413 90.182 12.16C89.558 11.7787 88.8473 11.588 88.05 11.588C87.2873 11.588 86.594 11.7613 85.97 12.108C85.346 12.4547 84.8433 12.9227 84.462 13.512C84.0807 14.1013 83.8553 14.7687 83.786 15.514V16.346C83.838 17.0567 84.0547 17.7067 84.436 18.296C84.8347 18.8853 85.3373 19.3533 85.944 19.7C86.568 20.0293 87.244 20.194 87.972 20.194Z" fill="white"/>
</svg>
